<svg width="40" height="40" viewBox="0 0 40 40" fill="none" xmlns="http://www.w3.org/2000/svg">
<g clip-path="url(#clip0_1_82538)">
<mask id="mask0_1_82538" style="mask-type:luminance" maskUnits="userSpaceOnUse" x="-1" y="0" width="41" height="40">
<path d="M-0.00146484 0H39.9924V39.9939H-0.00146484V0Z" fill="white"/>
</mask>
<g mask="url(#mask0_1_82538)">
<path fill-rule="evenodd" clip-rule="evenodd" d="M-10 26.6653H49.9908V33.3336H-10V26.6653Z" fill="#FFE700"/>
<path fill-rule="evenodd" clip-rule="evenodd" d="M-10 19.9968H49.9908V26.6652H-10V19.9968Z" fill="#000001"/>
<path fill-rule="evenodd" clip-rule="evenodd" d="M-10 13.3367H49.9908V19.9969H-10V13.3367Z" fill="#DE3908"/>
<path fill-rule="evenodd" clip-rule="evenodd" d="M-10 6.66821H49.9908V13.3365H-10V6.66821Z" fill="#FFE700"/>
<path fill-rule="evenodd" clip-rule="evenodd" d="M-10 0H49.9908V6.66833H-10V0Z" fill="#000001"/>
<path fill-rule="evenodd" clip-rule="evenodd" d="M26.2283 19.997C26.2283 21.649 25.572 23.2333 24.4039 24.4014C23.2357 25.5696 21.6514 26.2258 19.9994 26.2258C18.3474 26.2258 16.763 25.5696 15.5949 24.4014C14.4268 23.2333 13.7705 21.649 13.7705 19.997C13.7705 18.3449 14.4268 16.7606 15.5949 15.5925C16.763 14.4243 18.3474 13.7681 19.9994 13.7681C21.6514 13.7681 23.2357 14.4243 24.4039 15.5925C25.572 16.7606 26.2283 18.3449 26.2283 19.997Z" fill="#FFFDFF"/>
<path fill-rule="evenodd" clip-rule="evenodd" d="M19.9995 13.8043C18.3572 13.8043 16.7821 14.4567 15.6207 15.618C14.4594 16.7794 13.8069 18.3545 13.8069 19.9969C13.8069 21.6392 14.4594 23.2144 15.6207 24.3757C16.7821 25.537 18.3572 26.1895 19.9995 26.1895C21.6419 26.1895 23.217 25.537 24.3784 24.3757C25.5397 23.2144 26.1921 21.6392 26.1921 19.9969C26.1921 18.3545 25.5397 16.7794 24.3784 15.618C23.217 14.4567 21.6419 13.8043 19.9995 13.8043ZM15.5694 15.5667C16.7443 14.3918 18.3379 13.7317 19.9995 13.7317C21.6612 13.7317 23.2547 14.3918 24.4297 15.5667C25.6046 16.7417 26.2647 18.3352 26.2647 19.9969C26.2647 21.6585 25.6046 23.2521 24.4297 24.427C23.2547 25.602 21.6612 26.262 19.9995 26.262C18.3379 26.262 16.7443 25.602 15.5694 24.427C14.3945 23.2521 13.7344 21.6585 13.7344 19.9969C13.7344 18.3352 14.3945 16.7417 15.5694 15.5667Z" fill="black"/>
<path fill-rule="evenodd" clip-rule="evenodd" d="M18.8988 15.2235L18.4956 14.4817C18.6569 14.3204 18.9149 14.2075 19.3342 14.2075L19.2939 15.0138L18.8988 15.2235Z" fill="#DE3108"/>
<path fill-rule="evenodd" clip-rule="evenodd" d="M18.5408 14.4885L18.9136 15.1745L19.2588 14.9914L19.2962 14.244C18.923 14.2504 18.6898 14.3503 18.5408 14.4885ZM18.4701 14.4559C18.64 14.286 18.9084 14.1711 19.3343 14.1711H19.3725L19.3292 15.0361L18.8842 15.2723L18.4509 14.4751L18.4701 14.4559Z" fill="black"/>
<path fill-rule="evenodd" clip-rule="evenodd" d="M19.2939 15.0299L19.3423 14.2074C19.3423 14.2074 20.1809 14.159 20.6325 14.6993L20.189 15.3443L19.2939 15.0299Z" fill="#FFE700"/>
<path fill-rule="evenodd" clip-rule="evenodd" d="M19.3423 14.2076L19.3402 14.1713L19.308 14.1732L19.2561 15.0552L20.2031 15.3879L20.6779 14.6973L20.6603 14.6762C20.4271 14.3972 20.0954 14.2716 19.8254 14.2154C19.6901 14.1872 19.5692 14.1762 19.482 14.1722C19.4385 14.1702 19.4032 14.17 19.3788 14.1703C19.3666 14.1704 19.3571 14.1707 19.3505 14.1709C19.3473 14.171 19.3448 14.1711 19.343 14.1712L19.341 14.1713L19.3405 14.1713L19.3403 14.1713C19.3403 14.1713 19.3402 14.1713 19.3423 14.2076ZM19.3796 14.2428C19.3786 14.2428 19.3776 14.2429 19.3766 14.2429L19.3318 15.0049L20.1748 15.3011L20.5867 14.7019C20.3694 14.455 20.0658 14.3396 19.8106 14.2864C19.6799 14.2592 19.563 14.2485 19.4787 14.2447C19.4367 14.2428 19.4028 14.2426 19.3796 14.2428Z" fill="black"/>
<path fill-rule="evenodd" clip-rule="evenodd" d="M20.2051 15.3365L20.6163 14.6914C20.8905 14.9817 21.0033 15.1913 21.0517 15.4977C21.0517 15.5139 20.3986 15.659 20.3986 15.659L20.2051 15.3365Z" fill="#DE3108"/>
<path fill-rule="evenodd" clip-rule="evenodd" d="M20.6107 14.6326L20.6426 14.6664C20.9204 14.9605 21.0377 15.1766 21.0875 15.492L21.0879 15.4948V15.4976C21.0879 15.5128 21.079 15.522 21.0768 15.5242C21.0736 15.5274 21.0703 15.5295 21.0686 15.5306C21.0649 15.5328 21.061 15.5345 21.058 15.5357C21.0517 15.5383 21.0435 15.541 21.0343 15.5439C21.0156 15.5496 20.9895 15.5568 20.9587 15.5648C20.8971 15.5808 20.8151 15.6005 20.7334 15.6197C20.6516 15.6388 20.5699 15.6575 20.5086 15.6714C20.4779 15.6783 20.4524 15.684 20.4345 15.6881L20.4064 15.6943C20.4064 15.6943 20.4064 15.6943 20.3985 15.6589L20.4064 15.6943L20.3809 15.7L20.1624 15.3358L20.6107 14.6326ZM20.4162 15.6178L20.4187 15.6172C20.4365 15.6132 20.462 15.6075 20.4926 15.6006C20.5538 15.5867 20.6353 15.5681 20.7168 15.549C20.7984 15.5299 20.8797 15.5103 20.9405 15.4945C20.97 15.4869 20.9942 15.4803 21.0111 15.4751C20.9638 15.2045 20.8608 15.0102 20.6217 14.7503L20.2477 15.337L20.4162 15.6178Z" fill="black"/>
<path fill-rule="evenodd" clip-rule="evenodd" d="M19.1085 25.8751C19.1085 25.8751 19.8826 24.9881 21.3824 25.1736C21.1566 24.8107 20.4228 24.851 20.4228 24.851C20.4228 24.851 20.197 23.1255 20.3744 23.0449C20.5518 22.9642 21.3017 23.0449 21.3017 23.0449C21.4065 23.0449 21.5759 22.7788 21.4388 22.6094C21.3017 22.4401 20.9066 21.787 21.0679 21.658C21.2291 21.529 22.1161 21.7306 22.1161 21.7306L19.6165 18.5214C19.6165 18.5214 19.3585 17.3119 19.8745 16.7394C20.4873 16.2233 20.4228 15.675 20.4067 15.6831C20.3261 15.1187 19.4714 14.7155 18.8908 15.2315C18.5521 15.6428 18.7779 15.9572 18.7779 15.9572C18.7779 15.9572 17.8909 16.1991 17.8506 16.3604C17.8184 16.5055 18.8585 16.3282 18.8585 16.3282L18.7618 17.0377C18.7618 17.0377 16.7298 18.8923 18.278 20.4807C18.3022 20.4807 18.3344 20.4082 18.3344 20.4082C18.3344 20.4082 18.8827 21.0855 19.4552 21.2306C19.9955 21.787 19.939 21.6983 19.939 21.6983C19.939 21.6983 20.0519 22.5691 19.9471 22.7465C19.3797 22.6763 18.8062 22.6709 18.2377 22.7304C18.0522 22.7868 17.3426 22.7546 17.512 23.9076L17.77 23.319C17.77 23.319 17.7539 23.7383 17.9232 23.8834C17.8909 23.448 18.0845 23.1497 18.0845 23.1497C18.0845 23.1497 18.1167 23.6335 18.2296 23.698C18.3344 23.7786 18.3344 22.9239 18.9231 22.9884C19.5117 23.0691 19.939 23.0449 19.939 23.0449C19.939 23.0449 20.1325 24.7059 20.068 24.8672C19.6487 24.7623 18.6328 24.9075 18.5683 25.1655C19.1649 25.1252 19.4391 25.1978 19.4391 25.1978C19.4391 25.1978 18.9553 25.6251 19.1085 25.8751Z" fill="black"/>
<path fill-rule="evenodd" clip-rule="evenodd" d="M20.4373 15.6696C20.3913 15.3766 20.1486 15.1305 19.8472 15.0218C19.5413 14.9115 19.1697 14.9405 18.8694 15.2075C18.8681 15.2086 18.867 15.2098 18.8659 15.2111C18.6912 15.4232 18.6602 15.6133 18.6753 15.7521C18.6828 15.821 18.7015 15.8764 18.7184 15.9147C18.7221 15.9231 18.7258 15.9307 18.7292 15.9374C18.7048 15.9444 18.6705 15.9543 18.6294 15.9667C18.5453 15.992 18.4326 16.0274 18.3186 16.068C18.2047 16.1084 18.0885 16.1544 17.9979 16.2007C17.9526 16.2238 17.9126 16.2475 17.8821 16.2714C17.853 16.2943 17.8271 16.3214 17.8193 16.3526L17.8191 16.3534C17.8149 16.3727 17.8199 16.391 17.8324 16.4052C17.8434 16.4179 17.8589 16.4257 17.8738 16.4311C17.904 16.4418 17.9461 16.4469 17.9932 16.4488C18.0886 16.4527 18.2175 16.4439 18.3458 16.4308C18.4744 16.4176 18.604 16.3999 18.7012 16.3855C18.7499 16.3783 18.7905 16.3719 18.819 16.3673C18.8196 16.3673 18.8201 16.3672 18.8207 16.3671L18.7314 17.022C18.7277 17.0255 18.7228 17.0301 18.717 17.0357C18.7022 17.0499 18.6809 17.0708 18.6544 17.098C18.6014 17.1523 18.5275 17.2316 18.4437 17.3316C18.2764 17.5316 18.069 17.8154 17.9102 18.1497C17.7514 18.484 17.6406 18.8704 17.6683 19.2749C17.696 19.6801 17.8628 20.1009 18.2549 20.5033C18.261 20.5095 18.2693 20.513 18.278 20.513C18.289 20.513 18.2981 20.5089 18.3044 20.505C18.3107 20.5011 18.3161 20.4962 18.3205 20.4916C18.328 20.4836 18.3348 20.4741 18.3403 20.4652C18.3563 20.4838 18.3782 20.5086 18.4053 20.5381C18.4662 20.6044 18.5533 20.6944 18.6586 20.789C18.8661 20.9754 19.1475 21.1831 19.4384 21.2596C19.704 21.533 19.8243 21.6493 19.8783 21.6972C19.8919 21.7093 19.9019 21.7175 19.9092 21.723C19.9093 21.7231 19.9095 21.7232 19.9096 21.7233C19.9102 21.7281 19.9109 21.7336 19.9116 21.7399C19.9145 21.7639 19.9185 21.7985 19.9229 21.8405C19.9319 21.9247 19.9426 22.0386 19.9502 22.1579C19.9577 22.2774 19.9619 22.4017 19.9578 22.5067C19.9558 22.5592 19.9517 22.6062 19.945 22.6452C19.9403 22.6729 19.9345 22.695 19.928 22.7117C19.3658 22.6439 18.7976 22.6394 18.2343 22.6983C18.2323 22.6985 18.2302 22.699 18.2283 22.6996C18.2077 22.7058 18.1792 22.7111 18.1425 22.7178L18.1405 22.7182C18.1037 22.725 18.0604 22.733 18.0143 22.7448C17.9219 22.7683 17.8163 22.8071 17.7217 22.8826C17.5298 23.0356 17.3945 23.3297 17.4801 23.9123C17.4822 23.9266 17.4934 23.9377 17.5077 23.9396C17.5219 23.9415 17.5357 23.9338 17.5415 23.9206L17.7418 23.4637C17.7439 23.4909 17.7469 23.5205 17.7512 23.5513C17.7599 23.6141 17.7742 23.6826 17.7976 23.7453C17.8209 23.8077 17.8541 23.8667 17.9022 23.9079C17.9121 23.9164 17.9261 23.9181 17.9378 23.9122C17.9494 23.9064 17.9563 23.8941 17.9554 23.8811C17.9396 23.6687 17.979 23.4897 18.0222 23.3638C18.0359 23.3241 18.0499 23.2898 18.0626 23.2614C18.0674 23.3033 18.074 23.3535 18.0829 23.4051C18.0941 23.4703 18.1091 23.5388 18.1288 23.5957C18.1387 23.6241 18.1501 23.6506 18.1633 23.6726C18.176 23.6935 18.1917 23.7129 18.2118 23.725C18.2241 23.7337 18.2401 23.7388 18.2577 23.7334C18.2736 23.7285 18.2844 23.7167 18.2915 23.7069C18.3058 23.687 18.3181 23.6561 18.3298 23.6228C18.3366 23.6037 18.3435 23.5827 18.3509 23.5604C18.3706 23.5011 18.3934 23.4323 18.4244 23.3623C18.4668 23.2666 18.5228 23.1735 18.6017 23.1083C18.6794 23.0441 18.7809 23.0054 18.9191 23.0205C19.2147 23.0609 19.4697 23.0751 19.651 23.0791C19.7418 23.0812 19.814 23.0807 19.8637 23.0796C19.8826 23.0793 19.8983 23.0788 19.9104 23.0784C19.9117 23.0895 19.9133 23.1035 19.9152 23.1202C19.9203 23.1659 19.9276 23.2313 19.9362 23.3104C19.9533 23.4685 19.9755 23.681 19.9956 23.8985C20.0157 24.1161 20.0338 24.3383 20.0429 24.516C20.0474 24.605 20.0496 24.6823 20.0488 24.7421C20.0483 24.772 20.0471 24.7971 20.0451 24.8169C20.0447 24.8211 20.0442 24.825 20.0438 24.8286C19.825 24.783 19.4806 24.7954 19.1795 24.8485C19.0209 24.8765 18.872 24.9161 18.758 24.9657C18.701 24.9905 18.6515 25.0184 18.6136 25.0494C18.576 25.0802 18.5474 25.1161 18.537 25.1577C18.5345 25.1677 18.5369 25.1783 18.5435 25.1862C18.5501 25.1941 18.5601 25.1984 18.5704 25.1977C18.8671 25.1777 19.0831 25.1857 19.2245 25.1986C19.2887 25.2045 19.3375 25.2114 19.3715 25.2171C19.3629 25.2257 19.3532 25.2353 19.3428 25.2459C19.2992 25.2905 19.2425 25.3529 19.1904 25.4236C19.1385 25.4939 19.0901 25.574 19.0648 25.6541C19.0394 25.7342 19.036 25.8185 19.081 25.8919C19.0864 25.9007 19.0956 25.9064 19.1058 25.9072C19.116 25.9081 19.1261 25.904 19.1328 25.8963L19.1329 25.8962L19.1332 25.8959L19.1347 25.8942C19.1361 25.8926 19.1382 25.8903 19.1411 25.8872C19.1469 25.881 19.1557 25.8719 19.1674 25.8602C19.1909 25.8369 19.2263 25.8036 19.2736 25.7641C19.3681 25.6851 19.5098 25.5814 19.6979 25.4834C20.0739 25.2874 20.6359 25.1138 21.3784 25.2056C21.3907 25.2071 21.4028 25.2014 21.4095 25.191C21.4162 25.1805 21.4163 25.1671 21.4097 25.1565C21.2888 24.9623 21.0359 24.8799 20.8232 24.8444C20.7155 24.8265 20.6152 24.8201 20.5418 24.8182C20.5051 24.8172 20.4751 24.8174 20.4542 24.8178C20.4531 24.8178 20.4521 24.8178 20.4511 24.8178C20.4496 24.8061 20.4477 24.7909 20.4455 24.7728C20.4397 24.7256 20.4315 24.658 20.4224 24.5766C20.404 24.4137 20.3814 24.1959 20.3643 23.9757C20.3472 23.7553 20.3357 23.5333 20.3394 23.3618C20.3413 23.2759 20.347 23.204 20.3572 23.1519C20.3624 23.1257 20.3684 23.1059 20.3749 23.0923C20.3817 23.0779 20.3869 23.0746 20.3878 23.0742C20.4059 23.066 20.4335 23.059 20.4699 23.0536C20.5059 23.0483 20.5485 23.045 20.5954 23.0431C20.6893 23.0394 20.7986 23.0418 20.9031 23.0469C21.0073 23.0519 21.1062 23.0594 21.179 23.0657C21.2154 23.0688 21.2453 23.0716 21.266 23.0737C21.2764 23.0747 21.2845 23.0755 21.2899 23.0761L21.2962 23.0767L21.2981 23.0769L21.2982 23.0769C21.2994 23.0771 21.3006 23.0771 21.3017 23.0771C21.3404 23.0771 21.3784 23.0536 21.4091 23.0238C21.4408 22.993 21.4699 22.9509 21.4905 22.9036C21.5315 22.8097 21.5428 22.6867 21.4639 22.5892C21.3972 22.5068 21.2654 22.3034 21.1706 22.1047C21.1231 22.0053 21.0859 21.9091 21.0701 21.8309C21.0623 21.7918 21.0602 21.759 21.0638 21.7335C21.0674 21.7083 21.0762 21.6927 21.088 21.6832C21.1018 21.6722 21.1268 21.6624 21.1647 21.6559C21.2018 21.6495 21.2476 21.6468 21.2995 21.6472C21.4032 21.6479 21.5275 21.6608 21.6479 21.6778C21.7681 21.6949 21.8834 21.7159 21.9688 21.7327C22.0114 21.7411 22.0465 21.7485 22.0709 21.7537C22.0764 21.7549 22.0813 21.7559 22.0857 21.7569C22.0911 21.758 22.0956 21.759 22.0991 21.7598L22.1065 21.7615L22.1084 21.7619L22.1088 21.762L22.1089 21.762C22.1222 21.765 22.136 21.7594 22.1433 21.7479C22.1506 21.7364 22.1499 21.7215 22.1416 21.7107L19.6466 18.5075C19.6462 18.5058 19.6458 18.5038 19.6454 18.5014C19.6436 18.4926 19.6412 18.4796 19.6382 18.4627C19.6322 18.4289 19.6242 18.3799 19.6162 18.3192C19.6002 18.1979 19.5842 18.0303 19.5842 17.8451C19.5842 17.4733 19.6487 17.0395 19.897 16.7626C20.2072 16.5008 20.3473 16.2298 20.4074 16.0237C20.4375 15.9207 20.4474 15.834 20.4488 15.7729C20.4494 15.7424 20.4479 15.7179 20.4455 15.7006C20.4444 15.6922 20.4428 15.6843 20.4408 15.6779C20.4401 15.676 20.4391 15.673 20.4373 15.6696ZM19.6165 18.5214C19.5849 18.5281 19.5849 18.5281 19.5849 18.5281L19.5849 18.5278L19.5847 18.5271L19.5842 18.5244C19.5837 18.522 19.583 18.5184 19.5821 18.5139C19.5803 18.5047 19.5777 18.4912 19.5746 18.4739C19.5685 18.4393 19.5604 18.3894 19.5523 18.3277C19.536 18.2043 19.5197 18.0338 19.5197 17.8451C19.5197 17.4697 19.584 17.0135 19.8506 16.7178C19.8515 16.7167 19.8526 16.7157 19.8537 16.7147C20.1551 16.4609 20.2888 16.2003 20.3455 16.0057C20.3739 15.9082 20.3831 15.8271 20.3843 15.7715C20.3849 15.7436 20.3835 15.7226 20.3816 15.7094C20.3812 15.7061 20.3807 15.7036 20.3804 15.7017C20.3774 15.6976 20.3755 15.6928 20.3748 15.6877C20.3365 15.4201 20.1134 15.1864 19.8253 15.0825C19.5391 14.9793 19.194 15.0064 18.9141 15.254C18.7516 15.4522 18.7263 15.6243 18.7394 15.7451C18.7461 15.8063 18.7626 15.8552 18.7774 15.8886C18.7848 15.9054 18.7917 15.9182 18.7967 15.9266C18.7992 15.9309 18.8012 15.934 18.8025 15.936C18.8031 15.937 18.8036 15.9377 18.8039 15.9381L18.8041 15.9384C18.8103 15.947 18.8118 15.9581 18.8083 15.968C18.8048 15.978 18.7966 15.9856 18.7864 15.9884L18.7839 15.989L18.7766 15.9911C18.7701 15.9929 18.7607 15.9955 18.7486 15.999C18.7243 16.0059 18.6897 16.0159 18.648 16.0285C18.5645 16.0536 18.4529 16.0887 18.3402 16.1287C18.2273 16.1689 18.1141 16.2137 18.0272 16.2581C17.9836 16.2804 17.9477 16.3019 17.922 16.3222C17.8982 16.3408 17.8871 16.3551 17.8832 16.3645C17.8853 16.366 17.8891 16.368 17.8955 16.3703C17.9161 16.3776 17.95 16.3825 17.9958 16.3844C18.0864 16.3881 18.2115 16.3797 18.3392 16.3666C18.4666 16.3536 18.595 16.336 18.6918 16.3217C18.7401 16.3145 18.7805 16.3082 18.8088 16.3037C18.8229 16.3014 18.834 16.2996 18.8416 16.2983L18.8502 16.2969L18.8531 16.2964C18.8531 16.2964 18.8531 16.2964 18.8585 16.3282L18.8531 16.2964C18.8632 16.2947 18.8736 16.2978 18.881 16.305C18.8883 16.3121 18.8919 16.3223 18.8905 16.3325L18.7937 17.0421C18.7927 17.0496 18.7891 17.0565 18.7835 17.0616L18.7812 17.059C18.7835 17.0616 18.7835 17.0616 18.7835 17.0616L18.7832 17.0618L18.7822 17.0628L18.7781 17.0666C18.7744 17.0701 18.7689 17.0753 18.7617 17.0822C18.7474 17.0959 18.7266 17.1164 18.7006 17.1431C18.6485 17.1964 18.5758 17.2744 18.4932 17.373C18.328 17.5704 18.1242 17.8496 17.9685 18.1774C17.8127 18.5053 17.7059 18.8804 17.7326 19.2704C17.7588 19.6529 17.9136 20.0521 18.2812 20.4376C18.2833 20.4346 18.2855 20.4313 18.2878 20.4277C18.2927 20.4196 18.297 20.4114 18.3002 20.4051C18.3017 20.402 18.303 20.3994 18.3038 20.3976L18.3047 20.3956L18.3049 20.3952L18.305 20.3951C18.305 20.3951 18.305 20.3951 18.305 20.3951C18.3095 20.3848 18.3191 20.3777 18.3302 20.3762C18.3413 20.3747 18.3524 20.3792 18.3595 20.3879L18.3596 20.388L18.3598 20.3883L18.361 20.3897C18.3617 20.3906 18.3627 20.3919 18.3641 20.3935C18.3645 20.394 18.365 20.3946 18.3655 20.3952C18.3696 20.4001 18.3757 20.4073 18.3836 20.4166C18.3995 20.4351 18.4229 20.4619 18.4528 20.4945C18.5126 20.5597 18.5983 20.6481 18.7017 20.741C18.9094 20.9276 19.1847 21.1288 19.4631 21.1994C19.4689 21.2008 19.4742 21.2039 19.4784 21.2082C19.7486 21.4864 19.8687 21.6025 19.9211 21.649C19.9297 21.6566 19.9363 21.6622 19.9412 21.6661C19.9512 21.6668 19.9606 21.6721 19.9662 21.681L19.939 21.6983L19.9085 21.7023C19.9085 21.7023 19.9085 21.7023 19.9085 21.7023L19.939 21.6983C19.9662 21.681 19.9662 21.681 19.9662 21.681L19.9663 21.6811L19.9663 21.6812L19.9665 21.6814L19.9668 21.682C19.9671 21.6824 19.9674 21.683 19.9678 21.6837C19.9684 21.6848 19.9696 21.6871 19.9707 21.69C19.9712 21.6914 19.972 21.6937 19.9724 21.6965C19.9728 21.6986 19.9733 21.7024 19.9726 21.7071C19.9732 21.7113 19.9738 21.7164 19.9745 21.7224C19.9749 21.7255 19.9753 21.7288 19.9757 21.7323C19.9786 21.7565 19.9826 21.7914 19.9871 21.8338C19.9961 21.9185 20.007 22.0333 20.0145 22.1539C20.0221 22.2743 20.0265 22.401 20.0223 22.5092C20.0202 22.5632 20.0159 22.6133 20.0086 22.656C20.0015 22.698 19.991 22.7356 19.9749 22.7629C19.9683 22.774 19.9559 22.7801 19.9431 22.7785C19.3792 22.7087 18.8092 22.7032 18.244 22.7622C18.2202 22.7691 18.1897 22.7747 18.157 22.7807L18.1521 22.7816C18.1153 22.7884 18.074 22.7961 18.0302 22.8073C17.9426 22.8296 17.8467 22.8654 17.7619 22.933C17.6066 23.0569 17.4792 23.2959 17.5294 23.7875L17.7405 23.3061C17.7467 23.2919 17.7621 23.2841 17.7772 23.2876C17.7923 23.2911 17.8028 23.3048 17.8022 23.3203C17.8022 23.3203 17.8022 23.3203 17.8022 23.3203L17.8022 23.3205L17.8022 23.3213L17.8021 23.3246C17.802 23.3275 17.8019 23.3319 17.8019 23.3376C17.8018 23.349 17.8018 23.3656 17.8024 23.3859C17.8035 23.4267 17.8067 23.4824 17.815 23.5424C17.8234 23.6025 17.8368 23.666 17.858 23.7228C17.8666 23.7458 17.8764 23.7673 17.8873 23.7868C17.8871 23.6071 17.9227 23.4549 17.9612 23.3428C17.984 23.2767 18.0077 23.2244 18.026 23.1885C18.0351 23.1706 18.0428 23.1567 18.0483 23.1472C18.0511 23.1424 18.0533 23.1388 18.0548 23.1363C18.0556 23.135 18.0562 23.134 18.0566 23.1333L18.0572 23.1325L18.0573 23.1323L18.0574 23.1322C18.0574 23.1322 18.0574 23.1321 18.0845 23.1497L18.0574 23.1322C18.0649 23.1205 18.0791 23.115 18.0926 23.1185C18.106 23.122 18.1157 23.1337 18.1166 23.1476L18.1167 23.1479L18.1167 23.1488L18.117 23.1528C18.1173 23.1562 18.1177 23.1614 18.1182 23.168C18.1193 23.1811 18.121 23.2001 18.1234 23.223C18.1281 23.2689 18.1356 23.3306 18.1465 23.3942C18.1575 23.458 18.1717 23.5225 18.1898 23.5745C18.1988 23.6005 18.2085 23.6225 18.2186 23.6393C18.2268 23.6529 18.2344 23.6616 18.2408 23.6667C18.2486 23.6549 18.2576 23.6335 18.269 23.6013C18.2751 23.5841 18.2816 23.5644 18.2887 23.5429C18.3086 23.483 18.333 23.4093 18.3654 23.3362C18.4096 23.2364 18.4706 23.133 18.5606 23.0586C18.6516 22.9833 18.7707 22.9393 18.9266 22.9564L18.9274 22.9565C19.2203 22.9966 19.473 23.0106 19.6525 23.0146C19.7422 23.0167 19.8135 23.0162 19.8624 23.0152C19.8868 23.0147 19.9056 23.014 19.9182 23.0135C19.9246 23.0133 19.9293 23.0131 19.9325 23.0129L19.9361 23.0127L19.937 23.0127L19.9372 23.0127C19.9542 23.0117 19.9691 23.0242 19.9711 23.0411L19.939 23.0449C19.9711 23.0411 19.9711 23.0411 19.9711 23.0411L19.9711 23.0412L19.9732 23.0599C19.9746 23.0721 19.9767 23.0901 19.9793 23.1129C19.9844 23.1587 19.9917 23.2243 20.0003 23.3035C20.0175 23.4618 20.0397 23.6746 20.0598 23.8926C20.08 24.1104 20.0982 24.3337 20.1073 24.5128C20.1119 24.6023 20.1142 24.6812 20.1133 24.743C20.1128 24.774 20.1116 24.8011 20.1093 24.8234C20.1071 24.8449 20.1038 24.8646 20.098 24.8792C20.092 24.8941 20.0759 24.9024 20.0602 24.8985C19.857 24.8477 19.5033 24.8569 19.1907 24.912C19.0348 24.9395 18.8914 24.978 18.7837 25.0249C18.7299 25.0483 18.6861 25.0734 18.6545 25.0993C18.6418 25.1096 18.6315 25.1198 18.6232 25.1298C18.8941 25.1141 19.0948 25.122 19.2304 25.1344C19.3028 25.141 19.3566 25.149 19.3925 25.1553C19.4105 25.1585 19.424 25.1612 19.4331 25.1632C19.4376 25.1642 19.4411 25.165 19.4435 25.1656L19.4462 25.1663L19.447 25.1665L19.4472 25.1666L19.4473 25.1666C19.4473 25.1666 19.4473 25.1666 19.4449 25.1757L19.4473 25.1666C19.4588 25.1696 19.4677 25.1788 19.4705 25.1903C19.4732 25.2019 19.4694 25.2141 19.4605 25.2219L19.4602 25.2222L19.4592 25.223C19.4584 25.2238 19.4571 25.2249 19.4554 25.2265C19.452 25.2296 19.447 25.2342 19.4407 25.2401C19.4281 25.252 19.4101 25.2694 19.389 25.291C19.3466 25.3343 19.292 25.3944 19.2423 25.4618C19.1924 25.5296 19.1486 25.6032 19.1263 25.6735C19.1095 25.7265 19.1056 25.7753 19.1182 25.8182C19.1194 25.817 19.1207 25.8157 19.122 25.8144C19.1467 25.79 19.1834 25.7554 19.2322 25.7147C19.3297 25.6331 19.4752 25.5267 19.6681 25.4262C20.0413 25.2317 20.5912 25.0597 21.3117 25.1332C21.1953 25.0036 20.9977 24.9389 20.8126 24.9081C20.7087 24.8907 20.6115 24.8845 20.5402 24.8827C20.5045 24.8817 20.4755 24.8819 20.4554 24.8823C20.4454 24.8825 20.4376 24.8827 20.4323 24.8829C20.4297 24.883 20.4277 24.8831 20.4264 24.8832L20.425 24.8832L20.4247 24.8833L20.4228 24.8511L20.3908 24.8552C20.393 24.872 20.4078 24.8842 20.4247 24.8833M20.4228 24.8511C20.3908 24.8552 20.3908 24.8553 20.3908 24.8552L20.3908 24.8552L20.3902 24.8502L20.3883 24.8357C20.3867 24.823 20.3844 24.8044 20.3815 24.7807C20.3756 24.7333 20.3675 24.6654 20.3583 24.5838C20.3398 24.4206 20.3171 24.2019 20.2999 23.9807C20.2828 23.7597 20.2711 23.5351 20.2749 23.3604C20.2768 23.2732 20.2826 23.197 20.2939 23.1394C20.2996 23.1107 20.3069 23.0851 20.3166 23.0646C20.326 23.0449 20.3398 23.0252 20.3611 23.0155C20.3874 23.0036 20.422 22.9955 20.4605 22.9898C20.4995 22.9841 20.5446 22.9805 20.5929 22.9786C20.6895 22.9748 20.8009 22.9774 20.9061 22.9824C21.0115 22.9875 21.1112 22.9951 21.1845 23.0014C21.2212 23.0046 21.2513 23.0074 21.2723 23.0095C21.2828 23.0105 21.291 23.0113 21.2966 23.0119L21.3031 23.0126C21.3169 23.012 21.3388 23.0021 21.3642 22.9775C21.3894 22.9531 21.4138 22.9181 21.4314 22.8778C21.467 22.7962 21.4718 22.7015 21.4137 22.6298C21.3433 22.5428 21.209 22.335 21.1124 22.1325C21.0641 22.0313 21.0242 21.9295 21.0069 21.8436C20.9983 21.8007 20.9949 21.76 21 21.7244C21.0051 21.6885 21.0193 21.6556 21.0477 21.6328C21.0743 21.6116 21.1123 21.5994 21.1537 21.5923C21.196 21.585 21.246 21.5823 21.2999 21.5827C21.4079 21.5834 21.5355 21.5968 21.657 21.614C21.7787 21.6312 21.8952 21.6525 21.9812 21.6694C22.0013 21.6734 22.0198 21.6771 22.0362 21.6805L19.591 18.5412C19.588 18.5373 19.586 18.5328 19.5849 18.5281L19.6165 18.5214M19.9516 21.6739C19.9515 21.6739 19.9515 21.6738 19.9514 21.6738C19.9519 21.674 19.9519 21.6741 19.9516 21.6739ZM20.3794 15.698C20.3794 15.698 20.3795 15.698 20.3794 15.698V15.698Z" fill="black"/>
<path fill-rule="evenodd" clip-rule="evenodd" d="M19.3503 16.7717C19.3503 16.7717 17.8666 18.4005 18.5036 19.6503C18.544 19.4729 18.5278 19.3681 18.544 19.3762C18.5117 19.352 18.7294 19.5213 18.7052 19.4891C18.7214 19.4004 18.6488 19.2068 18.6488 19.2068L18.8423 19.2552L18.7294 19.0375L19.0116 19.0778C19.0116 19.0778 18.9149 18.8037 18.9471 18.8037C19.0252 18.8078 19.1031 18.8132 19.181 18.8198C18.7617 18.0699 19.1568 17.449 19.3422 16.7798L19.3503 16.7717Z" fill="#9CA69C"/>
<path fill-rule="evenodd" clip-rule="evenodd" d="M19.3724 16.7916L19.3742 16.7932C19.386 16.7803 19.3853 16.7603 19.3726 16.7482C19.3599 16.7361 19.3399 16.7363 19.3275 16.7487L19.3195 16.7568C19.3175 16.7587 19.3158 16.761 19.3144 16.7634C19.3129 16.7651 19.3113 16.7669 19.3096 16.7689C19.2987 16.7813 19.2829 16.7996 19.2631 16.8232C19.2235 16.8706 19.1676 16.9396 19.1027 17.0262C18.9728 17.1994 18.8062 17.4436 18.6595 17.7273C18.3671 18.2928 18.149 19.0252 18.475 19.6647C18.4811 19.6768 18.4942 19.6838 18.5077 19.6821C18.5212 19.6804 18.5321 19.6705 18.5352 19.6572C18.5558 19.5662 18.562 19.4938 18.5651 19.4455C18.5654 19.4414 18.5656 19.4375 18.5658 19.4338C18.5772 19.4424 18.5897 19.4519 18.6024 19.4613C18.6261 19.4789 18.6506 19.4968 18.6679 19.5083C18.6757 19.5135 18.6846 19.5191 18.6915 19.522C18.6932 19.5227 18.6972 19.5243 18.7022 19.5249C18.7046 19.5252 18.7098 19.5256 18.716 19.5238C18.7231 19.5217 18.7315 19.5164 18.7362 19.5066C18.7403 19.498 18.7396 19.4901 18.7389 19.4863C18.7388 19.4857 18.7386 19.4851 18.7385 19.4846C18.7415 19.4594 18.7393 19.4305 18.7352 19.4026C18.7304 19.3703 18.7225 19.3364 18.7142 19.306C18.7089 19.2865 18.7034 19.2682 18.6984 19.2523L18.8345 19.2863C18.8468 19.2894 18.8598 19.2849 18.8677 19.275C18.8755 19.265 18.8768 19.2514 18.871 19.2402L18.787 19.0781L19.0071 19.1095C19.0183 19.1111 19.0295 19.1068 19.0366 19.0981C19.0438 19.0893 19.0459 19.0775 19.0421 19.0669L19.0418 19.0661L19.0411 19.0639L19.0381 19.0553C19.0355 19.0479 19.0319 19.0373 19.0277 19.0246C19.0192 18.9991 19.0082 18.9652 18.9983 18.9314C18.9883 18.8974 18.9796 18.8645 18.9754 18.8407C18.9752 18.8395 18.975 18.8384 18.9748 18.8373C19.0427 18.8412 19.1105 18.846 19.1783 18.8517C19.1902 18.8527 19.2017 18.8471 19.2081 18.8371C19.2146 18.827 19.215 18.8143 19.2092 18.8038C19.0042 18.4373 18.9981 18.103 19.0664 17.7759C19.1008 17.6118 19.1538 17.4497 19.2104 17.2857C19.2197 17.2587 19.2291 17.2317 19.2385 17.2045C19.2852 17.0703 19.3324 16.9346 19.371 16.7968L19.3732 16.7943L19.374 16.7935L19.3742 16.7932L19.3724 16.7916C19.3724 16.7916 19.3724 16.7916 19.3724 16.7916ZM19.2663 16.9209C19.2341 16.9607 19.1961 17.0091 19.1543 17.0649C19.0259 17.2362 18.8614 17.4773 18.7168 17.7569C18.4408 18.2908 18.2417 18.9562 18.4903 19.545C18.4963 19.5035 18.499 19.4686 18.5007 19.4414C18.5011 19.4353 18.5015 19.4293 18.5018 19.4236C18.5027 19.4087 18.5035 19.3957 18.5046 19.3866C18.5052 19.381 18.5065 19.3719 18.5103 19.3641C18.511 19.3625 18.5122 19.3603 18.514 19.3579C18.5148 19.3558 18.5157 19.3538 18.5167 19.3521C18.5258 19.345 18.5418 19.3413 18.5467 19.3419C18.5489 19.3424 18.5523 19.3434 18.5534 19.3439C18.5541 19.3442 18.5553 19.3448 18.5558 19.3451C18.5573 19.3459 18.5585 19.3466 18.5586 19.3467L18.5595 19.3473L18.5607 19.3482L18.5634 19.3501C18.5646 19.3511 18.5658 19.3521 18.5669 19.3532C18.5698 19.3555 18.5738 19.3586 18.5787 19.3624C18.5941 19.3743 18.6174 19.392 18.6409 19.4095C18.6523 19.418 18.6636 19.4264 18.674 19.4339C18.6734 19.427 18.6725 19.4197 18.6714 19.412C18.6671 19.3831 18.6599 19.352 18.652 19.3229C18.6441 19.294 18.6358 19.2676 18.6293 19.2485C18.6261 19.239 18.6234 19.2313 18.6216 19.226C18.6206 19.2233 18.6199 19.2213 18.6194 19.2199L18.6188 19.2184L18.6187 19.218L18.6186 19.218M19.2663 16.9209C19.2384 17.0084 19.2081 17.0955 19.1778 17.1828C19.1683 17.2101 19.1588 17.2374 19.1494 17.2647C19.0928 17.4288 19.0385 17.5943 19.0033 17.7627C18.9358 18.0854 18.9381 18.4197 19.1246 18.7827C19.0661 18.7782 19.0075 18.7744 18.9489 18.7713C18.9483 18.7712 18.9478 18.7712 18.9472 18.7712C18.9306 18.7712 18.9194 18.7814 18.9141 18.7914C18.9098 18.7996 18.9088 18.808 18.9085 18.8133C18.9078 18.8248 18.9095 18.8386 18.9119 18.8519C18.9168 18.8795 18.9263 18.9151 18.9364 18.9496C18.9458 18.9815 18.956 19.0132 18.9642 19.0383L18.734 19.0054C18.7221 19.0037 18.7102 19.0088 18.7032 19.0186C18.6962 19.0285 18.6953 19.0414 18.7008 19.0521L18.7808 19.2064L18.6567 19.1753C18.645 19.1724 18.6328 19.1762 18.6248 19.1851C18.6168 19.1941 18.6144 19.2067 18.6186 19.218" fill="#9CA69C"/>
<path fill-rule="evenodd" clip-rule="evenodd" d="M19.8584 15.3848C19.8584 15.3848 19.939 15.9492 19.6326 16.1105C19.5843 16.1427 19.3907 16.2072 19.4149 16.3201C19.4552 16.4733 19.5359 16.4411 19.6568 16.4169C19.9794 16.3604 20.3503 15.675 19.8584 15.3848Z" fill="#9CA69C"/>
<path fill-rule="evenodd" clip-rule="evenodd" d="M19.8117 15.3152L19.8768 15.3536C20.0075 15.4307 20.0827 15.5355 20.1147 15.6509C20.1464 15.7655 20.1348 15.8876 20.0974 16C20.0599 16.1125 19.9959 16.2171 19.9199 16.2976C19.8444 16.3775 19.7543 16.4365 19.6634 16.4526C19.6542 16.4544 19.6447 16.4564 19.6353 16.4584C19.616 16.4625 19.5967 16.4666 19.5793 16.4694C19.5528 16.4736 19.525 16.476 19.4984 16.4706C19.4705 16.4651 19.4454 16.4513 19.4248 16.4265C19.4049 16.4028 19.3905 16.3704 19.3798 16.3294L19.3795 16.3286L19.3794 16.3278C19.3708 16.2877 19.3821 16.2524 19.402 16.2237C19.4213 16.1958 19.449 16.1732 19.4764 16.1549C19.504 16.1365 19.5337 16.121 19.5584 16.1086C19.5636 16.106 19.5685 16.1035 19.573 16.1013C19.5916 16.092 19.6047 16.0855 19.6124 16.0803L19.614 16.0793L19.6157 16.0784C19.7517 16.0068 19.8064 15.8424 19.8243 15.6831C19.8331 15.605 19.8326 15.5315 19.8299 15.4773C19.8285 15.4503 19.8266 15.4283 19.8251 15.4131C19.8243 15.4055 19.8236 15.3996 19.8231 15.3956C19.8229 15.3937 19.8227 15.3922 19.8226 15.3912L19.8224 15.3902L19.8224 15.39L19.8117 15.3152ZM19.9015 15.4583C19.9018 15.4632 19.9021 15.4684 19.9024 15.4737C19.9052 15.5305 19.9057 15.6081 19.8964 15.6912C19.8781 15.854 19.8202 16.0517 19.651 16.1418C19.639 16.1495 19.6212 16.1584 19.6032 16.1673C19.5991 16.1694 19.595 16.1714 19.591 16.1734C19.5667 16.1857 19.5404 16.1995 19.5166 16.2153C19.4926 16.2313 19.4734 16.248 19.4617 16.2649C19.4508 16.2808 19.4469 16.2957 19.4502 16.3118C19.4595 16.3469 19.4702 16.3677 19.4805 16.3801C19.4901 16.3916 19.5003 16.397 19.5127 16.3995C19.5264 16.4022 19.544 16.4015 19.5679 16.3977C19.5836 16.3952 19.5997 16.3918 19.6177 16.388C19.6277 16.3859 19.6382 16.3836 19.6496 16.3813L19.6505 16.3812C19.7207 16.3689 19.7978 16.3212 19.8671 16.2478C19.936 16.1748 19.9944 16.0793 20.0285 15.9771C20.0626 15.8748 20.0717 15.7677 20.0447 15.6703C20.0232 15.5926 19.9783 15.5194 19.9015 15.4583Z" fill="#9CA69C"/>
<path fill-rule="evenodd" clip-rule="evenodd" d="M19.31 15.8605C19.31 15.8925 19.2973 15.9233 19.2746 15.946C19.2519 15.9687 19.2211 15.9814 19.1891 15.9814C19.157 15.9814 19.1262 15.9687 19.1035 15.946C19.0809 15.9233 19.0681 15.8925 19.0681 15.8605C19.0681 15.8284 19.0809 15.7976 19.1035 15.7749C19.1262 15.7522 19.157 15.7395 19.1891 15.7395C19.2211 15.7395 19.2519 15.7522 19.2746 15.7749C19.2973 15.7976 19.31 15.8284 19.31 15.8605Z" fill="white"/>
<path fill-rule="evenodd" clip-rule="evenodd" d="M18.8344 16.3281C18.7537 16.3926 18.3506 16.82 18.7537 16.9732C19.173 16.8603 19.0521 16.7877 19.1488 16.691C19.1488 16.5055 18.9392 16.4491 18.8344 16.3281Z" fill="#DE3108"/>
<path fill-rule="evenodd" clip-rule="evenodd" d="M18.8388 16.2781L18.8617 16.3044C18.8851 16.3315 18.9152 16.3557 18.9491 16.3806C18.9597 16.3883 18.9709 16.3963 18.9823 16.4044C19.0061 16.4214 19.0309 16.439 19.0535 16.4571C19.1219 16.5118 19.185 16.5816 19.185 16.691V16.7061L19.1744 16.7167C19.1552 16.7359 19.1469 16.7534 19.1389 16.7735C19.1378 16.7761 19.1368 16.7789 19.1356 16.7818C19.1283 16.8007 19.1191 16.8247 19.1009 16.8483C19.0585 16.9032 18.9727 16.9519 18.7631 17.0083L18.7517 17.0114L18.7408 17.0072C18.6325 16.9661 18.5715 16.9034 18.5499 16.8268C18.5289 16.7523 18.5477 16.673 18.5795 16.6026C18.6429 16.4619 18.7682 16.3346 18.8116 16.2999L18.8388 16.2781ZM18.7557 16.9351C18.9562 16.8802 19.0178 16.8371 19.0434 16.8039C19.0548 16.7892 19.0601 16.7755 19.0676 16.7565C19.0688 16.7534 19.0701 16.7501 19.0714 16.7467C19.0798 16.7257 19.0905 16.7021 19.112 16.6773C19.1073 16.6087 19.0669 16.5608 19.0082 16.5138C18.9871 16.4969 18.9652 16.4814 18.9425 16.4652C18.9307 16.4568 18.9186 16.4482 18.9062 16.4391C18.881 16.4206 18.8554 16.4008 18.8323 16.3786C18.7824 16.4263 18.6935 16.5263 18.6456 16.6324C18.6169 16.696 18.6054 16.7563 18.6197 16.8071C18.6329 16.8537 18.6701 16.9001 18.7557 16.9351Z" fill="black"/>
<path fill-rule="evenodd" clip-rule="evenodd" d="M19.7293 20.3518C19.7051 20.4486 19.6164 20.7872 19.7454 21.0452C20.1002 20.9001 20.2614 20.9404 20.3824 21.0211C20.0921 20.7792 19.9792 20.6905 19.7293 20.3518Z" fill="#9CA69C"/>
<path fill-rule="evenodd" clip-rule="evenodd" d="M19.723 20.3202C19.7353 20.3178 19.7478 20.3226 19.7552 20.3327C19.9932 20.655 20.1045 20.7478 20.3697 20.9685C20.3805 20.9776 20.3917 20.9868 20.4031 20.9963C20.4162 21.0073 20.4185 21.0266 20.4082 21.0404C20.398 21.0541 20.3788 21.0574 20.3645 21.0479C20.3082 21.0104 20.2435 20.9826 20.1509 20.9808C20.0572 20.9789 19.9328 21.0035 19.7576 21.0751C19.742 21.0815 19.7241 21.0748 19.7166 21.0597C19.6484 20.9233 19.6385 20.7675 19.6477 20.6358C19.6566 20.5089 19.6837 20.4011 19.6965 20.35C19.697 20.3479 19.6975 20.3459 19.698 20.344C19.701 20.3319 19.7108 20.3226 19.723 20.3202ZM19.7445 20.4262C19.7321 20.4814 19.718 20.5565 19.7121 20.6403C19.7038 20.7575 19.712 20.8885 19.7618 21.004C19.9271 20.939 20.0521 20.9142 20.1522 20.9163C20.1734 20.9167 20.1934 20.9183 20.2124 20.921C20.0351 20.7709 19.9237 20.6634 19.7445 20.4262Z" fill="#9CA69C"/>
<path fill-rule="evenodd" clip-rule="evenodd" d="M20.342 21.9644L20.3582 22.7546C20.3582 22.7546 20.6404 22.811 20.7613 22.7546C20.8903 22.7062 20.7613 22.2063 20.342 21.9644Z" fill="white"/>
<path fill-rule="evenodd" clip-rule="evenodd" d="M20.3257 21.9366C20.3357 21.9307 20.3481 21.9306 20.3582 21.9364C20.5748 22.0614 20.7162 22.2527 20.787 22.4194C20.8224 22.5026 20.8409 22.5815 20.8415 22.6444C20.8418 22.6758 20.8376 22.7051 20.8273 22.7293C20.8169 22.7536 20.7997 22.7742 20.7739 22.7843C20.7384 22.8006 20.6938 22.8079 20.6493 22.8106C20.6038 22.8134 20.5555 22.8115 20.5118 22.8079C20.468 22.8043 20.4281 22.7989 20.3992 22.7944C20.3848 22.7921 20.373 22.7901 20.3648 22.7886C20.3607 22.7879 20.3576 22.7873 20.3554 22.7869L20.3528 22.7864L20.3521 22.7863L20.352 22.7862C20.3519 22.7862 20.3519 22.7862 20.3582 22.7546L20.3519 22.7862C20.337 22.7832 20.3263 22.7704 20.3259 22.7552L20.3098 21.965C20.3096 21.9534 20.3156 21.9425 20.3257 21.9366ZM20.3899 22.7275C20.3955 22.7285 20.402 22.7295 20.4091 22.7307C20.437 22.735 20.4752 22.7402 20.5171 22.7436C20.559 22.7471 20.604 22.7487 20.6454 22.7462C20.6873 22.7436 20.7229 22.7369 20.7477 22.7254C20.7485 22.725 20.7493 22.7247 20.75 22.7244C20.7559 22.7222 20.7624 22.7169 20.7679 22.704C20.7736 22.6907 20.7772 22.6711 20.777 22.645C20.7765 22.593 20.7608 22.5227 20.7276 22.4447C20.667 22.3019 20.5505 22.1393 20.3755 22.023L20.3899 22.7275Z" fill="white"/>
<path fill-rule="evenodd" clip-rule="evenodd" d="M22.3498 22.0612C22.3498 22.0612 21.8338 20.8275 20.5356 20.513C19.2374 20.1986 19.3987 18.8198 19.5035 18.7311C19.5599 18.6101 19.6002 18.4246 19.9792 18.602C20.3582 18.7794 22.0837 19.6503 22.3337 19.6906C22.5836 19.7309 22.3659 22.0934 22.3498 22.0612Z" fill="#9CA69C"/>
<path fill-rule="evenodd" clip-rule="evenodd" d="M19.5516 18.7126C19.5468 18.7235 19.5419 18.7347 19.5365 18.7463L19.5331 18.7535L19.5272 18.7586L19.5271 18.7587M19.5516 18.7126C19.5606 18.692 19.5691 18.6723 19.5802 18.6525L19.5516 18.7126ZM19.5802 18.6525C19.5962 18.6238 19.6146 18.6007 19.6394 18.5856L19.5802 18.6525ZM19.6394 18.5856C19.6874 18.5563 19.7769 18.5473 19.964 18.6348L19.6394 18.5856ZM19.6017 18.5236C19.6827 18.4743 19.8029 18.4793 19.9947 18.5691C20.0857 18.6117 20.2546 18.6944 20.462 18.7959C20.6865 18.9059 20.9561 19.0379 21.2207 19.1649C21.4756 19.2874 21.7262 19.4053 21.9285 19.4952C22.0297 19.5401 22.1185 19.5779 22.1896 19.6056C22.2619 19.6338 22.3127 19.6504 22.3396 19.6547C22.3702 19.6596 22.3916 19.6814 22.4062 19.705C22.4211 19.7289 22.4327 19.7603 22.4421 19.7961C22.4609 19.8679 22.473 19.9661 22.4803 20.0802C22.4949 20.3088 22.4906 20.6084 22.4779 20.9046C22.4653 21.201 22.4444 21.4951 22.4256 21.7131C22.4161 21.8221 22.4073 21.9122 22.4002 21.9743C22.3967 22.0052 22.3936 22.0295 22.391 22.0458C22.3898 22.0537 22.3886 22.0608 22.3873 22.066L22.3872 22.0662C22.3868 22.0679 22.3855 22.0731 22.3828 22.0781C22.382 22.0796 22.3804 22.0824 22.3777 22.0855C22.3753 22.0881 22.3693 22.0941 22.3593 22.0966C22.347 22.0997 22.3357 22.0961 22.328 22.0901C22.3218 22.0853 22.3187 22.0797 22.3175 22.0774L22.317 22.0763L22.3165 22.0751L22.3162 22.0744L22.3152 22.072C22.3142 22.0698 22.3127 22.0665 22.3108 22.0621C22.3068 22.0533 22.3008 22.0402 22.2926 22.0233C22.2763 21.9896 22.2514 21.9409 22.2175 21.8814C22.1497 21.7623 22.0458 21.6002 21.9019 21.4283C21.6138 21.0844 21.1665 20.7031 20.5272 20.5482C19.8631 20.3874 19.5703 19.9524 19.4586 19.547C19.4029 19.345 19.3921 19.1504 19.4019 19.0003C19.4068 18.9252 19.4169 18.8606 19.4295 18.8112C19.4357 18.7865 19.4428 18.765 19.4505 18.7475C19.4563 18.7342 19.4637 18.7205 19.4734 18.7099C19.4765 18.7031 19.4797 18.6957 19.4831 18.688C19.4929 18.6655 19.5041 18.64 19.5168 18.6172C19.536 18.5827 19.562 18.5478 19.6017 18.5236ZM22.3312 21.9384C22.3376 21.8792 22.3452 21.8001 22.3532 21.7069C22.372 21.4897 22.3929 21.1967 22.4054 20.9015C22.418 20.606 22.4222 20.3095 22.4079 20.0848C22.4007 19.9721 22.3889 19.8795 22.3719 19.8145C22.3633 19.7818 22.354 19.7584 22.3446 19.7433C22.335 19.7278 22.3287 19.7265 22.3281 19.7263C22.2925 19.7206 22.2347 19.7011 22.1633 19.6733C22.0907 19.6449 22.0007 19.6067 21.8991 19.5615C21.6957 19.4712 21.4444 19.3529 21.1893 19.2304C20.9232 19.1026 20.6535 18.9705 20.4293 18.8607C20.2227 18.7596 20.0548 18.6774 19.964 18.6348M22.3312 21.9384C22.3172 21.9115 22.3004 21.8803 22.2806 21.8455C22.2111 21.7234 22.1048 21.5575 21.9575 21.3817C21.663 21.0301 21.2032 20.6373 20.5443 20.4777C19.9102 20.3241 19.6345 19.9124 19.5285 19.5277C19.4753 19.3345 19.465 19.1482 19.4743 19.005C19.479 18.9334 19.4886 18.8733 19.4998 18.8291C19.5054 18.8069 19.5113 18.7894 19.5169 18.7768C19.5197 18.7705 19.5222 18.7658 19.5242 18.7626C19.5261 18.7596 19.5272 18.7586 19.5272 18.7586C19.5272 18.7586 19.5272 18.7586 19.5272 18.7586M22.3167 22.0491C22.3167 22.049 22.3167 22.0489 22.3168 22.0486C22.3167 22.049 22.3167 22.0492 22.3167 22.0491Z" fill="black"/>
<path fill-rule="evenodd" clip-rule="evenodd" d="M21.1082 20.5129C21.084 20.521 22.8498 21.5531 22.3176 22.4401C22.8256 22.1095 22.6563 21.5208 22.6563 21.5208C22.6563 21.5208 23.0675 22.5933 22.0677 23.1174C22.1806 23.2141 22.2451 23.1899 22.2451 23.1899L22.0838 23.3593C22.0838 23.3593 22.0032 23.4883 22.6724 23.1657C22.487 23.3109 22.4709 23.4157 22.4709 23.4157C22.4709 23.4157 22.5273 23.5609 22.9627 23.1738C22.7893 23.3444 22.6425 23.5401 22.5273 23.7544C23.4949 23.6657 25.5752 20.5532 21.8742 19.634L22.0354 19.8114L21.1082 20.5129Z" fill="#DE3108"/>
<path fill-rule="evenodd" clip-rule="evenodd" d="M21.8465 19.6175C21.8538 19.6053 21.8682 19.5993 21.882 19.6028C22.8117 19.8337 23.3834 20.2036 23.6997 20.6341C24.0164 21.0652 24.0737 21.5529 23.9831 22.0119C23.8927 22.4703 23.6546 22.9014 23.3784 23.2234C23.2402 23.3846 23.0919 23.5191 22.9468 23.6164C22.8021 23.7134 22.6586 23.7748 22.5303 23.7865C22.5184 23.7876 22.507 23.7821 22.5004 23.7722C22.4939 23.7623 22.4933 23.7496 22.4989 23.7391C22.562 23.6218 22.6345 23.5099 22.7155 23.4046C22.6481 23.4456 22.5975 23.4649 22.5591 23.4717C22.5188 23.4788 22.4897 23.4724 22.4694 23.4597C22.4596 23.4536 22.4528 23.4465 22.4483 23.4405C22.4461 23.4375 22.4444 23.4348 22.4432 23.4325C22.4426 23.4314 22.4421 23.4304 22.4417 23.4295L22.4412 23.4284L22.441 23.4279L22.4409 23.4276L22.4409 23.4275C22.4408 23.4275 22.4408 23.4274 22.4709 23.4157C22.439 23.4108 22.439 23.4108 22.439 23.4108L22.439 23.4107L22.439 23.4106L22.4391 23.4104L22.4392 23.4098L22.4395 23.4081C22.4398 23.4068 22.4401 23.4051 22.4407 23.403C22.4417 23.3988 22.4434 23.3931 22.446 23.386C22.4511 23.3719 22.4599 23.3523 22.4746 23.3283C22.4841 23.3129 22.496 23.2957 22.5109 23.277C22.4294 23.3139 22.3633 23.3416 22.3097 23.3622C22.2225 23.3957 22.1669 23.4109 22.1312 23.4155C22.1135 23.4177 22.0981 23.4177 22.0853 23.4143C22.0714 23.4105 22.0581 23.402 22.0519 23.3867C22.0463 23.3732 22.049 23.3608 22.0509 23.3547C22.0519 23.3512 22.0532 23.3484 22.0542 23.3464C22.0547 23.3454 22.0551 23.3445 22.0555 23.3438L22.0561 23.3429L22.0563 23.3425L22.0564 23.3424L22.0564 23.3423C22.0565 23.3422 22.0565 23.3422 22.0838 23.3593L22.0565 23.3422C22.0576 23.3404 22.059 23.3386 22.0605 23.3371L22.1746 23.2172C22.1404 23.2071 22.0973 23.1853 22.0467 23.1419C22.0386 23.1349 22.0345 23.1244 22.0357 23.1138C22.0369 23.1031 22.0433 23.0938 22.0527 23.0888C22.5407 22.833 22.6832 22.4453 22.7048 22.1205C22.7098 22.0453 22.7083 21.9735 22.703 21.9074C22.6725 22.0931 22.5784 22.3089 22.3353 22.4671C22.3227 22.4753 22.3061 22.4737 22.2953 22.4633C22.2845 22.4529 22.2823 22.4364 22.29 22.4235C22.4166 22.2125 22.4074 21.9928 22.3199 21.7781C22.232 21.5623 22.0653 21.3535 21.8807 21.1698C21.6964 20.9865 21.496 20.8301 21.3428 20.7188C21.2663 20.6632 21.2017 20.619 21.1568 20.5883L21.1544 20.5867C21.1332 20.5722 21.1162 20.5606 21.1048 20.5524C21.0991 20.5483 21.0939 20.5444 21.0902 20.5413C21.0887 20.5401 21.0855 20.5373 21.0828 20.5338C21.0828 20.5338 21.0828 20.5337 21.0827 20.5337C21.0818 20.5326 21.0773 20.5267 21.076 20.518C21.0752 20.5124 21.0755 20.504 21.0808 20.4957C21.0834 20.4916 21.0866 20.4887 21.0896 20.4865L21.9878 19.807L21.8503 19.6558C21.8408 19.6452 21.8392 19.6297 21.8465 19.6175ZM22.6563 21.5209C22.6864 21.5093 22.6865 21.5093 22.6865 21.5094L22.6865 21.5094L22.6866 21.5096L22.6868 21.5103L22.6878 21.5129C22.6886 21.5151 22.6897 21.5183 22.6912 21.5225C22.6941 21.5308 22.6981 21.543 22.7029 21.5585C22.7124 21.5897 22.7248 21.6345 22.7365 21.69C22.7599 21.8007 22.7805 21.9542 22.7691 22.1247C22.7471 22.4571 22.6033 22.8538 22.1266 23.1221C22.1609 23.1455 22.1873 23.1548 22.2051 23.1583C22.217 23.1607 22.2254 23.1606 22.2302 23.1601C22.2325 23.1599 22.234 23.1596 22.2346 23.1594C22.2347 23.1594 22.2348 23.1594 22.2348 23.1594C22.2486 23.1547 22.2639 23.1599 22.272 23.1722C22.2803 23.1847 22.2788 23.2013 22.2685 23.2122L22.1381 23.349C22.1677 23.3433 22.2143 23.3297 22.2866 23.302C22.372 23.2691 22.4916 23.2171 22.6585 23.1367C22.6733 23.1296 22.6911 23.1348 22.6998 23.1487C22.7085 23.1627 22.7053 23.181 22.6923 23.1912C22.6022 23.2617 22.5546 23.3214 22.5296 23.3621C22.5177 23.3815 22.5109 23.3967 22.5071 23.4068C22.5131 23.4093 22.5254 23.4121 22.5479 23.4082C22.607 23.3977 22.7241 23.3428 22.9413 23.1497C22.9544 23.1381 22.9743 23.139 22.9863 23.1518C22.9982 23.1646 22.9978 23.1846 22.9854 23.1968C22.8298 23.3498 22.696 23.5233 22.5876 23.7123C22.6861 23.6907 22.7963 23.6397 22.9109 23.5628C23.0503 23.4693 23.1944 23.3389 23.3294 23.1814C23.5998 22.8663 23.8319 22.4451 23.9198 21.9994C24.0077 21.5544 23.9516 21.086 23.6477 20.6723C23.355 20.2738 22.8295 19.922 21.9707 19.6922L22.0593 19.7898C22.0654 19.7965 22.0684 19.8054 22.0676 19.8144C22.0667 19.8235 22.0621 19.8317 22.0549 19.8372L21.1613 20.5132C21.1698 20.5191 21.1799 20.5259 21.1914 20.5338L21.1932 20.5351C21.2382 20.5658 21.3034 20.6105 21.3807 20.6667C21.5353 20.7789 21.7386 20.9375 21.9262 21.1241C22.1134 21.3103 22.287 21.5263 22.3797 21.7537C22.4563 21.9417 22.478 22.1386 22.4057 22.332C22.5686 22.1844 22.6283 22.0052 22.6454 21.8529C22.6557 21.7619 22.6506 21.6807 22.6429 21.6222C22.639 21.593 22.6346 21.5696 22.6311 21.5537C22.6294 21.5457 22.6279 21.5396 22.6268 21.5355C22.6263 21.5335 22.6259 21.532 22.6257 21.531L22.6254 21.53L22.6253 21.5298L22.6253 21.5298L22.6253 21.5298C22.6206 21.5132 22.6297 21.4958 22.6461 21.4903C22.6625 21.4848 22.6803 21.4932 22.6864 21.5093L22.6563 21.5209ZM21.1314 20.4917C21.1314 20.4917 21.1315 20.4918 21.1317 20.4919C21.1315 20.4917 21.1314 20.4917 21.1314 20.4917ZM22.4709 23.4157L22.439 23.4108C22.4381 23.4164 22.4388 23.4222 22.4408 23.4274L22.4709 23.4157Z" fill="black"/>
<path fill-rule="evenodd" clip-rule="evenodd" d="M21.1807 20.2066C21.4226 20.3679 21.5032 20.4324 21.5354 20.513C21.3177 20.4646 21.1162 20.4808 21.1162 20.4808C21.1162 20.4808 20.6485 20.0292 20.5598 19.997C20.4953 19.997 20.1244 19.7551 20.1244 19.7551C19.9389 19.6664 19.7696 19.0294 20.4469 19.2148C21.1565 19.5454 21.2532 19.5696 21.2532 19.5696L22.0918 19.8357L22.5756 20.3759C22.5756 20.3759 21.7128 19.9486 21.608 19.9405C21.8499 20.134 21.9789 20.3921 21.9789 20.3921C21.7048 20.3114 21.4709 20.2469 21.1807 20.2066Z" fill="white"/>
<path fill-rule="evenodd" clip-rule="evenodd" d="M20.0307 19.5939C20.0607 19.6602 20.1019 19.7086 20.1383 19.726C20.1396 19.7266 20.1408 19.7273 20.142 19.7281L20.1431 19.7287L20.1461 19.7307C20.1488 19.7325 20.1528 19.7351 20.1579 19.7384C20.1681 19.7449 20.1828 19.7544 20.2006 19.7656C20.2363 19.7882 20.2844 19.8183 20.3345 19.8484C20.3847 19.8785 20.4364 19.9083 20.4794 19.9305C20.5009 19.9417 20.5197 19.9506 20.5347 19.9567C20.5422 19.9597 20.5483 19.9619 20.5531 19.9632C20.5573 19.9644 20.5594 19.9647 20.5598 19.9647C20.5598 19.9647 20.5599 19.9647 20.5598 19.9647C20.5635 19.9647 20.5673 19.9654 20.5708 19.9667C20.5867 19.9724 20.607 19.9856 20.6281 20.0009C20.6502 20.017 20.6764 20.0378 20.7048 20.0614C20.7617 20.1087 20.8289 20.1686 20.893 20.2272C20.9572 20.2858 21.0186 20.3434 21.0639 20.3863C21.0866 20.4078 21.1052 20.4256 21.1182 20.438C21.1221 20.4418 21.1255 20.445 21.1283 20.4477C21.134 20.4474 21.1413 20.4471 21.15 20.4468C21.1728 20.446 21.2055 20.4455 21.245 20.4465C21.3066 20.4481 21.3854 20.4535 21.47 20.4675C21.4564 20.4515 21.4388 20.4343 21.4158 20.4146C21.363 20.3697 21.2839 20.3142 21.1628 20.2335C21.1503 20.2251 21.1452 20.2092 21.1505 20.1952C21.1559 20.1811 21.1702 20.1726 21.1851 20.1747C21.4503 20.2115 21.6687 20.2684 21.9114 20.3388C21.8973 20.3158 21.8794 20.2881 21.8578 20.2575C21.7965 20.1703 21.7057 20.06 21.5879 19.9657C21.5768 19.9569 21.5728 19.9419 21.578 19.9287C21.5832 19.9155 21.5964 19.9073 21.6105 19.9084C21.6289 19.9098 21.6582 19.9192 21.6909 19.9313C21.7253 19.9441 21.7682 19.9617 21.8162 19.9824C21.9123 20.0238 22.0304 20.0781 22.1449 20.1321C22.2539 20.1835 22.36 20.2347 22.4412 20.2742L22.0737 19.8638L21.2441 19.6006L21.2429 19.6002C21.2417 19.5999 21.24 19.5994 21.2378 19.5986C21.2332 19.5972 21.2263 19.5948 21.2159 19.591C21.1952 19.5833 21.1604 19.5698 21.1037 19.546C20.9905 19.4985 20.7892 19.4099 20.4358 19.2452C20.2711 19.2005 20.1643 19.2076 20.0981 19.2379C20.0338 19.2673 20.0026 19.3214 19.9941 19.3863C19.9855 19.4525 20.0011 19.5286 20.0307 19.5939ZM21.2611 19.5384L21.2612 19.5384L21.2614 19.5384L21.2611 19.5383C21.2605 19.5382 21.2594 19.5378 21.2577 19.5373C21.2541 19.5361 21.248 19.534 21.2382 19.5304C21.2186 19.5232 21.1848 19.51 21.1287 19.4865C21.0163 19.4393 20.8152 19.3508 20.4606 19.1856C20.4589 19.1848 20.4572 19.1842 20.4555 19.1837C20.2829 19.1365 20.1577 19.1396 20.0713 19.1792C19.9827 19.2198 19.9408 19.2958 19.9301 19.378C19.9196 19.459 19.9388 19.5472 19.9719 19.6205C20.0042 19.6919 20.053 19.7557 20.1085 19.7832L20.111 19.7849C20.1138 19.7867 20.1178 19.7893 20.123 19.7926C20.1333 19.7993 20.1481 19.8087 20.1661 19.8201C20.202 19.8429 20.2506 19.8733 20.3013 19.9037C20.3519 19.9341 20.405 19.9647 20.4498 19.9878C20.4721 19.9994 20.4928 20.0093 20.5105 20.0165C20.5239 20.0219 20.5389 20.0272 20.5522 20.0288C20.5595 20.0322 20.5721 20.04 20.5903 20.0531C20.6107 20.068 20.6356 20.0878 20.6635 20.111C20.7193 20.1574 20.7856 20.2165 20.8495 20.2748C20.9133 20.3331 20.9744 20.3904 21.0195 20.4331C21.0421 20.4545 21.0607 20.4722 21.0736 20.4846C21.0801 20.4908 21.0851 20.4957 21.0886 20.499L21.0938 20.504C21.1004 20.5104 21.1095 20.5137 21.1188 20.5129" fill="black"/>
<path fill-rule="evenodd" clip-rule="evenodd" d="M17.85 16.4241C17.8326 16.4282 17.8152 16.4174 17.8112 16.4001C17.8071 16.3827 17.8178 16.3654 17.8352 16.3613L17.8426 16.3927C17.8352 16.3613 17.8352 16.3613 17.8352 16.3613L17.8445 16.3591C17.8506 16.3577 17.8595 16.3556 17.8708 16.353C17.8936 16.3478 17.9261 16.3403 17.9655 16.3315C18.0443 16.3138 18.1503 16.2906 18.2594 16.2684C18.3685 16.2462 18.481 16.2249 18.5725 16.2111C18.6183 16.2043 18.6593 16.1992 18.6923 16.1969C18.7087 16.1958 18.7237 16.1953 18.7365 16.1957C18.7487 16.1961 18.7614 16.1973 18.772 16.2008C18.7889 16.2065 18.798 16.2247 18.7924 16.2416C18.7867 16.2585 18.7685 16.2677 18.7516 16.262C18.7501 16.2615 18.745 16.2605 18.7345 16.2602C18.7246 16.2599 18.712 16.2602 18.6967 16.2613C18.6662 16.2634 18.6271 16.2682 18.5821 16.2749C18.4922 16.2884 18.381 16.3094 18.2723 16.3316C18.1637 16.3537 18.0581 16.3768 17.9796 16.3944C17.9404 16.4032 17.908 16.4107 17.8853 16.4159C17.874 16.4185 17.8652 16.4205 17.8591 16.4219L17.85 16.4241Z" fill="white"/>
<path fill-rule="evenodd" clip-rule="evenodd" d="M-10 33.3335H49.9908V40.0018H-10V33.3335Z" fill="#DE3908"/>
</g>
</g>
<defs>
<clipPath id="clip0_1_82538">
<path d="M0 4C0 1.79086 1.79086 0 4 0H36C38.2091 0 40 1.79086 40 4V36C40 38.2091 38.2091 40 36 40H4C1.79086 40 0 38.2091 0 36V4Z" fill="white"/>
</clipPath>
</defs>
</svg>
